<svg xmlns="http://www.w3.org/2000/svg" viewBox="0 0 100 100">
  <defs>
    <linearGradient id="logoGradient" x1="0%" y1="0%" x2="100%" y2="100%">
      <stop offset="0%" style="stop-color:#D97706"/>
      <stop offset="100%" style="stop-color:#B45309"/>
    </linearGradient>
  </defs>
  <!-- F shape (left) -->
  <path d="M15 10 L15 90 L30 90 L30 55 L30 10 L55 10 L55 25 L30 25 L30 40 L50 40 L50 55 L30 55" fill="url(#logoGradient)"/>
  <!-- H shape (right) -->
  <path d="M70 10 L70 90 L85 90 L85 55 L85 10 L85 10" fill="url(#logoGradient)"/>
  <!-- Connecting bar -->
  <rect x="30" y="40" width="55" height="15" fill="url(#logoGradient)"/>
  <!-- House roof -->
  <path d="M35 70 L50 55 L65 70 Z" fill="none" stroke="white" stroke-width="3"/>
  <!-- House body -->
  <rect x="40" y="70" width="20" height="15" fill="none" stroke="white" stroke-width="2"/>
  <!-- Window -->
  <rect x="47" y="73" width="6" height="6" fill="white"/>
  <line x1="50" y1="73" x2="50" y2="79" stroke="url(#logoGradient)" stroke-width="1"/>
  <line x1="47" y1="76" x2="53" y2="76" stroke="url(#logoGradient)" stroke-width="1"/>
</svg>